<svg width="256" height="256" viewBox="0 0 256 256" xmlns="http://www.w3.org/2000/svg">
  <defs>
    <linearGradient id="bgGradient" x1="0%" y1="0%" x2="100%" y2="100%">
      <stop offset="0%" style="stop-color:#2196F3;stop-opacity:1" />
      <stop offset="100%" style="stop-color:#1976D2;stop-opacity:1" />
    </linearGradient>
    <linearGradient id="iconGradient" x1="0%" y1="0%" x2="100%" y2="100%">
      <stop offset="0%" style="stop-color:#FFFFFF;stop-opacity:1" />
      <stop offset="100%" style="stop-color:#E3F2FD;stop-opacity:1" />
    </linearGradient>
  </defs>
  
  <!-- Background circle -->
  <circle cx="128" cy="128" r="120" fill="url(#bgGradient)" stroke="#1565C0" stroke-width="4"/>
  
  <!-- Warp effect rings -->
  <circle cx="128" cy="128" r="90" fill="none" stroke="rgba(255,255,255,0.2)" stroke-width="2"/>
  <circle cx="128" cy="128" r="70" fill="none" stroke="rgba(255,255,255,0.3)" stroke-width="1.5"/>
  <circle cx="128" cy="128" r="50" fill="none" stroke="rgba(255,255,255,0.4)" stroke-width="1"/>
  
  <!-- Central transfer icon -->
  <g transform="translate(128, 128)">
    <!-- Bidirectional arrows -->
    <path d="M-30 -10 L-10 -10 L-10 -20 L10 0 L-10 20 L-10 10 L-30 10 Z" 
          fill="url(#iconGradient)" opacity="0.9"/>
    <path d="M30 10 L10 10 L10 20 L-10 0 L10 -20 L10 -10 L30 -10 Z" 
          fill="url(#iconGradient)" opacity="0.9"/>
    
    <!-- Device icons -->
    <rect x="-45" y="-8" width="12" height="16" rx="2" fill="url(#iconGradient)" opacity="0.8"/>
    <rect x="33" y="-8" width="12" height="16" rx="2" fill="url(#iconGradient)" opacity="0.8"/>
    
    <!-- Connection particles -->
    <circle cx="-20" cy="-5" r="2" fill="rgba(255,255,255,0.8)"/>
    <circle cx="0" cy="8" r="1.5" fill="rgba(255,255,255,0.6)"/>
    <circle cx="20" cy="-3" r="2" fill="rgba(255,255,255,0.8)"/>
  </g>
  
  <!-- Subtle outer glow -->
  <circle cx="128" cy="128" r="124" fill="none" stroke="rgba(33,150,243,0.3)" stroke-width="8" opacity="0.5"/>
</svg>