<svg class="icon-svg" viewBox="0 0 256 256" xmlns="http://www.w3.org/2000/svg">
                <defs>
                    <linearGradient id="grad1" x1="0%" y1="0%" x2="100%" y2="100%">
                        <stop offset="0%" style="stop-color:#4A90E2;stop-opacity:1" />
                        <stop offset="100%" style="stop-color:#50E3C2;stop-opacity:1" />
                    </linearGradient>
                    <linearGradient id="grad2" x1="0%" y1="100%" x2="100%" y2="0%">
                        <stop offset="0%" style="stop-color:#7B1FA2;stop-opacity:1" />
                        <stop offset="100%" style="stop-color:#F5515F;stop-opacity:1" />
                    </linearGradient>
                </defs>
                <path d="M64 48 C28.65 48 0 76.65 0 112 L0 144 C0 179.35 28.65 208 64 208 L80 208 L80 48 Z" fill="url(#grad1)"/>
                <path d="M192 48 C227.35 48 256 76.65 256 112 L256 144 C256 179.35 227.35 208 192 208 L176 208 L176 48 Z" fill="url(#grad2)"/>

                <!-- Animated Arrows -->
                <path d="M100 100 L140 128 L100 156" stroke="#FFFFFF" stroke-width="8" fill="none" stroke-linecap="round" stroke-linejoin="round">
                    <animate attributeName="d" values="M100 100 L140 128 L100 156; M110 100 L150 128 L110 156; M100 100 L140 128 L100 156" dur="1.5s" repeatCount="indefinite" />
                </path>
                 <path d="M156 100 L116 128 L156 156" stroke="#FFFFFF" stroke-width="8" fill="none" stroke-linecap="round" stroke-linejoin="round">
                    <animate attributeName="d" values="M156 100 L116 128 L156 156; M146 100 L106 128 L146 156; M156 100 L116 128 L156 156" dur="1.5s" repeatCount="indefinite" />
                </path>
            </svg>